<svg xmlns="http://www.w3.org/2000/svg" width="900" height="480" viewBox="0 0 900 480" fill="none">
<defs><linearGradient id="bg" x1="0" y1="0" x2="0" y2="480"><stop offset="0" stop-color="#F6F3EC"/><stop offset="1" stop-color="#DED0BC"/></linearGradient></defs>
<rect width="900" height="480" rx="32" fill="url(#bg)"/>
<circle cx="738" cy="101" r="58" fill="#E9E1D2"/>
<path d="M0 315 C180 260 300 355 480 295 C660 236 780 355 960 286 C1150 212 1290 342 1600 260 L1600 600 L0 600 Z" fill="#DCCBB4" opacity=".75"/>
<path d="M0 378 C230 304 390 430 610 350 C800 280 980 425 1600 330 L1600 600 L0 600 Z" fill="#C6B293" opacity=".80"/>
<path d="M0 448 C250 360 450 500 740 400 C1000 312 1210 510 1600 418 L1600 600 L0 600 Z" fill="#8A7A67" opacity=".70"/>
<path d="M0 508 C270 420 530 560 820 450 C1060 360 1300 575 1600 478 L1600 600 L0 600 Z" fill="#6A5545" opacity=".48"/>
</svg>